<svg version="1.1" id="Layer_1" xmlns="http://www.w3.org/2000/svg" xmlns:xlink="http://www.w3.org/1999/xlink" x="0px" y="0px"
	 viewBox="0 0 360.027 360.027" style="enable-background:new 0 0 360.027 360.027;" xml:space="preserve">
<g id="XMLID_105_">
	<path id="XMLID_106_" d="M262.611,146.361c25.204,3.89,47.729,15.997,64.755,33.484c1.73-6.369,2.633-13.023,2.633-19.832
		c0-41.355-33.645-75-75-75c-15.624,0-30.505,4.733-43.186,13.689c4.711,2.408,9.297,5.105,13.716,8.123
		C240.773,117.236,253.361,130.699,262.611,146.361z"/>
	<path id="XMLID_107_" d="M239.999,30.013v10c0,8.284,6.716,15,15,15c8.284,0,15-6.716,15-15v-10c0-8.284-6.716-15-15-15
		C246.715,15.013,239.999,21.729,239.999,30.013z"/>
	<path id="XMLID_108_" d="M334.42,59.408l-9.984,9.984c-5.857,5.858-5.857,15.355,0.001,21.213c2.93,2.93,6.767,4.394,10.606,4.394
		s7.679-1.465,10.607-4.394l9.984-9.986c5.857-5.857,5.856-15.355-0.001-21.213C349.774,53.548,340.277,53.548,334.42,59.408z"/>
	<path id="XMLID_109_" d="M70,345.014h175c46.869,0,85-38.131,85-85v-0.001c0-1.353-0.039-2.697-0.103-4.035
		c-0.02-0.438-0.056-0.873-0.083-1.31c-0.057-0.898-0.121-1.794-0.205-2.686c-0.048-0.513-0.104-1.022-0.162-1.533
		c-0.092-0.813-0.195-1.621-0.309-2.427c-0.076-0.528-0.15-1.056-0.235-1.58c-0.129-0.8-0.276-1.593-0.427-2.385
		c-0.097-0.505-0.186-1.014-0.291-1.516c-0.202-0.967-0.43-1.924-0.666-2.878c-0.189-0.765-0.393-1.523-0.602-2.278
		c-0.193-0.699-0.385-1.398-0.595-2.09c-0.2-0.657-0.419-1.307-0.635-1.957c-0.178-0.537-0.356-1.073-0.544-1.605
		c-0.246-0.693-0.503-1.383-0.766-2.068c-0.176-0.459-0.357-0.914-0.541-1.369c-0.295-0.729-0.594-1.457-0.909-2.178
		c-0.149-0.342-0.308-0.68-0.462-1.02c-0.645-1.422-1.324-2.824-2.041-4.205c-0.007-0.014-0.014-0.028-0.022-0.042
		c-0.717-1.381-1.472-2.739-2.264-4.073c-0.008-0.014-0.016-0.028-0.023-0.043c-0.51-0.855-1.039-1.698-1.577-2.535
		c-0.114-0.178-0.228-0.357-0.343-0.535c-0.529-0.81-1.072-1.609-1.628-2.4c-0.119-0.169-0.239-0.337-0.36-0.506
		c-0.582-0.815-1.174-1.624-1.785-2.419c-15.551-20.244-39.982-33.327-67.424-33.327h-1.668
		c-9.694-24.508-29.047-43.54-52.906-53.122c-1.354-0.544-2.725-1.057-4.107-1.539c-0.099-0.034-0.199-0.064-0.297-0.099
		c-1.205-0.416-2.422-0.806-3.646-1.174c-0.297-0.089-0.594-0.175-0.892-0.261c-1.079-0.313-2.165-0.605-3.258-0.881
		c-0.299-0.075-0.597-0.154-0.896-0.227c-1.34-0.323-2.688-0.624-4.047-0.891c-0.016-0.002-0.03-0.006-0.045-0.01
		c-1.393-0.271-2.799-0.507-4.21-0.717c-0.327-0.049-0.656-0.088-0.984-0.133c-1.054-0.144-2.11-0.274-3.174-0.385
		c-0.448-0.047-0.897-0.09-1.347-0.129c-1.001-0.09-2.006-0.162-3.016-0.22c-0.422-0.024-0.844-0.054-1.268-0.073
		c-1.408-0.063-2.82-0.103-4.24-0.103c-40.385,0-74.965,25.329-88.688,60.937c-1.42,3.684-2.615,7.477-3.572,11.363
		c-0.547,2.221-1.015,4.472-1.401,6.751c-0.645,3.798-1.064,7.672-1.241,11.607c-6.361,0.904-12.45,2.667-18.144,5.167
		c-1.899,0.833-3.753,1.748-5.559,2.74c-0.903,0.497-1.795,1.013-2.673,1.547c-1.757,1.068-3.463,2.213-5.114,3.428
		C11.271,231.346,0,251.888,0,275.013v0.001C0,313.612,31.401,345.014,70,345.014z"/>
	<path id="XMLID_110_" d="M154.393,59.406c-5.857,5.857-5.858,15.356,0,21.213l4.506,4.508l5.479,5.479
		c2.929,2.93,6.768,4.394,10.606,4.394c3.839,0,7.678-1.464,10.607-4.394c0.459-0.459,0.869-0.947,1.256-1.447
		c4.553-5.883,4.144-14.366-1.255-19.766l-9.985-9.984C169.748,53.548,160.252,53.548,154.393,59.406z"/>
</g>
<g>
</g>
<g>
</g>
<g>
</g>
<g>
</g>
<g>
</g>
<g>
</g>
<g>
</g>
<g>
</g>
<g>
</g>
<g>
</g>
<g>
</g>
<g>
</g>
<g>
</g>
<g>
</g>
<g>
</g>
</svg>